<?xml version="1.0" standalone="no"?>
<!DOCTYPE svg PUBLIC "-//W3C//DTD SVG 20010904//EN"
 "http://www.w3.org/TR/2001/REC-SVG-20010904/DTD/svg10.dtd">
<svg version="1.0" xmlns="http://www.w3.org/2000/svg"
 width="1152.000000pt" height="532.000000pt" viewBox="0 0 1152.000000 532.000000"
 preserveAspectRatio="xMidYMid meet">
<metadata>
Created by potrace 1.16, written by Peter Selinger 2001-2019
</metadata>
<g transform="translate(0.000000,532.000000) scale(0.100000,-0.100000)"
fill="#000000" stroke="none">
<path d="M0 4929 c0 -366 1 -390 17 -387 11 2 18 13 19 26 1 23 30 62 46 62 4
0 8 -13 8 -29 0 -34 15 -49 24 -25 4 10 14 14 26 11 11 -3 23 -1 26 5 4 6 10
5 15 -3 7 -11 9 -9 9 6 0 11 7 31 16 44 13 18 15 36 11 82 -4 34 -3 61 3 64 6
4 10 -9 10 -30 0 -28 5 -38 20 -42 23 -6 27 -23 6 -23 -19 0 -23 -7 -31 -61
l-7 -45 92 -2 c57 -1 98 -6 107 -14 13 -10 19 -8 33 10 17 20 19 20 22 5 3
-16 4 -16 9 2 3 11 -3 47 -14 80 -19 60 -19 88 -1 209 5 26 2 41 -7 46 -10 7
-10 11 1 25 10 12 10 21 1 41 -6 14 -16 22 -21 19 -6 -3 -10 2 -10 12 -1 11
-6 5 -15 -14 -8 -18 -18 -33 -24 -33 -5 0 -16 -3 -25 -6 -13 -5 -16 1 -16 29
0 22 6 37 16 41 8 3 12 10 9 16 -4 6 -11 7 -17 4 -7 -5 -9 2 -4 20 5 19 3 26
-8 26 -8 0 -17 8 -21 18 -6 16 -7 16 -21 -2 -15 -21 -20 -96 -6 -96 4 0 13 5
20 12 9 9 12 4 12 -22 0 -22 -3 -30 -8 -22 -13 20 -70 4 -76 -22 -7 -29 2 225
10 297 7 56 6 57 -19 57 -14 0 -28 -6 -30 -12 -4 -10 -6 -10 -6 0 -2 23 -20
12 -24 -15 l-4 -28 -2 28 -1 27 -85 0 -85 0 0 -391z"/>
<path d="M584 5243 c1 -79 -28 -189 -43 -164 -4 6 -12 -16 -17 -48 -5 -33 -6
-57 -2 -55 4 3 8 13 8 22 0 15 2 15 10 2 8 -12 10 -10 10 10 1 24 1 24 12 5
13 -21 14 -128 3 -260 -4 -47 -2 -103 5 -137 9 -48 8 -65 -6 -105 -19 -57 -19
-129 1 -208 14 -51 14 -61 0 -88 -8 -16 -15 -36 -15 -44 0 -7 -8 -21 -17 -31
-10 -9 -20 -29 -21 -42 -2 -14 -12 -43 -22 -65 l-19 -40 -16 40 c-13 30 -16
59 -13 118 3 43 1 74 -3 70 -4 -4 -9 -40 -11 -80 -3 -62 -5 -71 -18 -63 -12 8
-13 12 -2 19 16 10 12 63 -5 69 -7 2 -13 -4 -13 -13 0 -23 -20 -41 -52 -47
-18 -3 -29 0 -33 9 -8 21 4 36 19 24 10 -8 16 -4 24 14 14 30 2 39 -45 33 -24
-2 -29 -9 -33 -38 l-6 -35 -7 33 c-7 34 -24 40 -57 20 -14 -9 -23 -10 -28 -3
-14 20 -54 36 -73 30 -11 -4 -19 -2 -19 4 0 6 5 11 11 11 5 0 7 5 4 10 -11 17
-36 11 -33 -7 1 -10 0 -22 -4 -28 -9 -15 9 -55 25 -55 21 0 28 12 15 27 -17
21 -2 27 31 12 36 -16 40 -35 11 -44 -11 -3 -20 -11 -20 -16 0 -5 -7 -9 -14
-9 -12 0 -13 -6 -5 -29 7 -20 6 -39 -4 -69 -12 -35 -12 -42 0 -46 8 -3 11 -1
8 4 -3 6 -1 10 4 10 6 0 11 -4 11 -10 0 -19 19 -10 26 12 4 13 18 39 31 60 16
24 23 44 18 57 -4 12 -2 21 4 21 6 0 11 -4 11 -10 0 -5 10 -9 23 -9 34 1 100
-13 115 -24 6 -5 12 -18 12 -28 0 -11 7 -19 18 -19 15 -1 15 -2 2 -13 -8 -7
-21 -22 -28 -35 -11 -20 -10 -22 8 -22 11 0 20 -4 20 -9 0 -5 19 -11 42 -15
23 -4 50 -13 58 -21 14 -13 16 -8 12 48 -3 54 0 66 22 96 l25 34 6 -29 c3 -16
10 -45 14 -65 6 -27 3 -54 -14 -105 l-23 -69 -10 35 c-10 34 -10 34 -11 -21
-1 -61 -25 -134 -41 -124 -6 4 -10 -7 -10 -24 0 -16 -3 -37 -7 -47 -4 -12 -3
-15 5 -10 7 4 15 1 18 -8 3 -9 12 -16 20 -16 16 0 19 36 4 45 -15 9 -1 77 21
98 24 23 29 22 29 -7 0 -13 6 -39 14 -58 13 -30 13 -38 -4 -75 -21 -47 -38
-61 -46 -39 -10 25 -25 19 -19 -7 7 -27 -16 -52 -39 -44 -9 4 -13 1 -11 -6 3
-7 -11 -23 -31 -37 -19 -14 -48 -35 -64 -47 -15 -13 -32 -23 -37 -23 -28 0
-283 -305 -283 -339 0 -6 -4 -11 -10 -11 -7 0 -10 -342 -10 -1006 0 -914 1
-1007 16 -1022 15 -15 15 -16 -2 -22 -15 -6 -12 -10 20 -25 39 -19 59 -46 38
-53 -7 -2 -12 -14 -12 -27 0 -17 7 -24 30 -28 28 -6 108 -52 121 -71 4 -5 18
-10 32 -11 34 -4 49 -14 41 -27 -5 -7 2 -9 20 -6 14 3 29 1 32 -3 3 -5 18 -9
35 -9 16 0 29 -4 29 -9 0 -19 70 -33 185 -37 91 -3 130 -9 161 -23 22 -11 86
-25 141 -32 90 -10 106 -10 157 6 45 14 71 16 134 10 42 -5 90 -8 106 -7 51 2
95 -27 128 -85 16 -29 37 -53 45 -53 9 0 13 -6 10 -14 -4 -10 6 -16 35 -20 26
-4 42 -13 45 -24 3 -13 16 -17 54 -19 27 0 56 -7 65 -14 13 -11 11 -16 -17
-45 -33 -34 -106 -71 -149 -74 -53 -4 -68 2 -131 50 -35 28 -80 55 -101 60
-20 6 -64 29 -98 51 -33 23 -64 39 -67 35 -3 -3 15 -24 40 -47 26 -22 46 -44
45 -47 -1 -4 6 -24 15 -46 9 -21 17 -45 17 -52 0 -31 68 -124 147 -201 45 -44
83 -86 83 -92 0 -8 123 -11 419 -11 391 0 420 1 425 18 2 9 8 47 12 84 l6 67
-41 7 c-22 4 -41 11 -41 15 0 5 14 33 30 63 33 59 33 98 -1 135 -25 26 -24 31
4 31 23 0 57 27 57 46 1 5 9 19 20 32 15 19 28 23 62 22 73 -3 81 -1 74 16 -7
19 24 62 62 82 61 33 225 48 255 23 10 -8 17 -9 22 -1 4 6 22 8 44 4 20 -3 53
-2 72 4 19 5 44 6 55 1 27 -9 36 -61 17 -89 -13 -18 -12 -20 12 -20 28 0 41
21 29 47 -4 10 -6 22 -5 26 2 12 -32 44 -54 49 -24 6 -23 7 103 44 85 25 97
33 93 58 -1 5 4 13 11 18 8 5 1 6 -17 2 -47 -9 -55 -13 -55 -24 0 -6 6 -8 13
-4 7 4 9 3 4 -2 -5 -5 -12 -9 -15 -9 -4 -1 -18 -7 -32 -15 -62 -36 -141 -47
-95 -14 10 7 15 20 12 29 -8 19 -37 20 -37 0 0 -8 -4 -15 -10 -15 -5 0 -6 -7
-3 -17 5 -11 3 -14 -6 -8 -7 4 -16 3 -20 -3 -21 -33 -170 -46 -164 -14 4 16
-3 15 -74 -10 -35 -12 -66 -19 -69 -15 -10 9 70 102 123 144 15 12 42 33 58
46 17 13 45 32 62 42 18 11 28 22 22 26 -22 13 -61 -5 -94 -44 -19 -22 -35
-36 -35 -30 0 33 106 110 136 99 8 -3 26 1 40 10 13 9 24 13 24 10 0 -8 23 10
48 36 9 10 26 18 39 18 12 0 25 5 28 10 4 6 27 21 53 34 26 13 57 32 69 43 12
10 52 36 87 58 36 22 66 43 66 48 0 9 -30 9 -109 -3 -59 -8 -69 -14 -109 -55
-24 -25 -48 -45 -52 -45 -4 0 -12 11 -18 25 -12 25 -24 30 -106 39 -27 4 -51
8 -53 10 -4 4 15 31 43 60 6 6 9 17 7 23 -3 7 1 21 7 32 9 17 8 20 -6 14 -12
-4 -15 -3 -10 5 4 7 2 12 -3 12 -19 0 -12 20 7 21 9 0 12 3 6 5 -15 6 -6 44
15 65 36 37 51 60 51 79 0 11 3 19 8 19 18 -3 32 2 32 11 0 6 -7 10 -15 10
-12 0 -15 13 -15 59 0 48 -4 62 -24 83 -16 16 -24 35 -24 55 1 16 -2 34 -5 40
-3 5 -2 27 3 49 12 53 37 171 46 214 7 33 8 34 14 10 4 -14 5 -54 2 -89 -5
-62 -5 -63 31 -97 26 -23 37 -41 37 -62 0 -32 17 -90 33 -110 5 -7 21 -45 34
-83 21 -62 22 -75 11 -100 -7 -16 -16 -29 -20 -29 -5 0 -8 -15 -8 -34 0 -39
28 -66 67 -66 25 0 39 -15 22 -25 -5 -4 -8 -13 -5 -21 3 -8 -1 -14 -9 -14 -8
0 -15 -5 -15 -11 0 -6 6 -9 14 -6 11 4 16 -3 18 -26 3 -28 -1 -33 -27 -43 -25
-9 -15 -10 55 -7 84 4 150 24 150 47 0 6 4 5 9 -3 7 -11 13 -10 35 5 14 11 23
25 21 33 -4 10 -2 11 7 4 9 -8 28 -2 67 20 45 25 50 32 36 40 -29 16 -120 2
-175 -26 -28 -15 -48 -22 -45 -17 8 13 140 77 173 84 15 3 43 2 62 -2 37 -9
85 11 124 51 20 20 20 20 -3 14 -16 -4 -21 -3 -14 4 6 6 17 12 24 13 8 2 34
13 59 24 25 12 51 22 58 22 8 0 12 17 12 51 0 39 5 55 21 68 20 16 20 17 3 60
-15 38 -16 75 -13 329 3 158 2 305 -1 327 l-5 40 -65 3 c-36 2 -68 6 -72 9 -5
2 -8 -1 -8 -6 0 -6 -9 -11 -20 -11 -14 0 -20 7 -20 24 0 13 -9 35 -20 49 -11
14 -20 37 -20 52 0 14 -5 36 -12 48 -6 12 -15 35 -19 52 -4 16 -14 57 -23 90
-42 166 -113 343 -183 452 -18 29 -33 56 -33 61 0 5 -26 34 -58 64 -57 55
-113 89 -162 101 -14 4 -53 24 -86 45 -34 22 -119 69 -190 106 -104 54 -145
69 -214 81 -47 8 -86 15 -87 15 -2 0 -3 5 -3 10 0 13 103 13 248 0 93 -8 118
-8 141 4 26 14 64 12 86 -4 6 -4 33 -7 60 -6 48 1 50 2 47 29 -2 15 1 27 7 27
6 0 11 -4 11 -10 0 -5 7 -10 15 -10 8 0 15 -8 15 -19 0 -15 11 -20 63 -26 100
-11 237 -15 237 -5 0 10 46 7 57 -3 3 -4 21 -7 40 -7 27 0 33 4 33 21 0 11 5
17 10 14 6 -4 8 -11 5 -16 -4 -5 9 -9 27 -10 18 0 42 -4 53 -8 23 -9 47 -3 39
10 -3 5 -1 9 4 9 6 0 12 -7 16 -15 3 -9 14 -13 28 -11 13 3 26 5 30 5 9 1 -11
72 -26 90 -6 9 -6 12 -1 9 6 -4 17 -3 25 2 10 6 3 10 -23 15 -20 4 -37 11 -37
16 0 5 -10 9 -22 8 -13 0 -17 -3 -10 -6 6 -2 12 -9 12 -15 0 -12 -62 1 -73 16
-5 6 -6 1 -2 -11 3 -13 3 -23 -2 -23 -11 0 -43 37 -43 50 0 6 -5 10 -11 10 -6
0 -9 -9 -6 -20 6 -24 1 -25 -21 -4 -15 15 -16 15 -22 -1 -7 -20 -37 -29 -46
-14 -3 5 -10 7 -15 4 -5 -4 -9 1 -9 9 0 9 -4 16 -10 16 -13 0 -13 -27 0 -35 6
-3 10 -14 10 -23 0 -11 -6 -6 -16 13 -19 36 -14 32 -48 41 l-30 7 23 -32 23
-32 -21 -6 c-11 -3 -21 -9 -21 -13 0 -16 -38 3 -43 21 -6 24 -4 35 6 31 10 -3
9 16 -2 22 -9 6 -45 -39 -47 -59 -1 -5 -2 -14 -3 -18 -2 -17 -41 15 -42 36 -1
16 -3 17 -6 5 -2 -10 -10 -15 -19 -11 -10 4 -12 0 -8 -11 3 -9 10 -13 15 -10
5 3 9 1 9 -4 0 -10 -23 -22 -40 -22 -5 0 -21 12 -37 26 -17 16 -36 24 -49 21
-18 -3 -23 2 -28 23 -3 15 -11 30 -19 33 -12 4 -13 -1 -7 -29 7 -29 5 -34 -11
-34 -12 0 -16 5 -13 15 4 8 1 15 -5 15 -6 0 -11 -4 -11 -9 0 -5 -13 -9 -30 -9
-16 1 -30 5 -30 10 0 5 5 6 10 3 6 -3 10 1 10 10 0 9 -4 14 -9 10 -5 -3 -12 5
-14 17 l-4 23 -2 -22 c0 -13 -8 -23 -16 -23 -8 0 -15 -7 -15 -15 0 -9 6 -12
15 -9 8 4 15 1 15 -5 0 -6 -5 -11 -11 -11 -5 0 -7 -4 -4 -10 14 -22 -15 -8
-51 26 -22 19 -31 32 -21 28 19 -7 67 13 67 28 0 5 -9 4 -21 -2 -24 -14 -54
-5 -43 12 5 8 2 9 -12 4 -31 -12 -39 -12 -36 2 3 16 -20 16 -36 0 -10 -10 -15
-10 -22 2 -7 12 -14 9 -38 -18 -32 -35 -42 -40 -42 -17 0 17 0 17 -97 19 -76
1 -79 0 -75 -47 1 -10 -2 -16 -6 -13 -4 2 -23 -24 -42 -60 -18 -35 -48 -80
-65 -100 -27 -30 -33 -33 -44 -20 -11 13 -16 11 -42 -16 -38 -38 -45 -32 -23
18 10 22 21 52 24 69 5 28 13 34 77 51 22 6 -2 48 -33 58 -42 13 -45 14 -93
41 -24 14 -46 25 -48 25 -11 0 1 -33 21 -57 22 -26 22 -29 6 -45 -13 -15 -23
-16 -51 -8 -18 6 -41 19 -50 31 -12 16 -35 23 -110 33 -68 9 -108 20 -143 40
-26 15 -51 24 -54 21 -6 -5 11 -20 30 -27 4 -2 5 -20 1 -40 -5 -36 -8 -38 -42
-38 -20 0 -45 3 -57 6 -23 6 -54 53 -47 72 3 6 0 12 -6 12 -6 0 -11 -3 -11 -7
0 -5 -12 -9 -28 -9 -45 -3 -82 -22 -82 -43 0 -11 -5 -21 -10 -23 -6 -2 1 -15
14 -29 39 -42 57 -137 30 -160 -11 -9 -14 -8 -14 3 0 26 -36 51 -56 40 -15 -8
-26 -2 -60 31 -23 23 -44 52 -48 65 -4 12 -11 22 -15 22 -4 0 -15 26 -25 58
-10 31 -22 66 -26 78 -4 11 -6 32 -3 46 9 47 -12 68 -65 68 -27 0 -53 5 -60
12 -16 16 -19 10 -24 -36 -3 -38 -3 -39 37 -43 45 -4 95 -24 95 -36 0 -5 -18
-7 -39 -6 -21 2 -46 -2 -54 -9 -11 -10 -19 -8 -39 8 -26 20 -26 20 -31 0 -3
-11 -11 -20 -17 -20 -8 0 -10 8 -7 21 4 15 2 19 -9 15 -8 -3 -21 -9 -29 -12
-10 -4 -15 0 -15 10 0 25 -25 19 -40 -9 -11 -21 -15 -23 -22 -10 -12 20 -36
19 -40 -1 -2 -11 -15 -18 -38 -19 -19 -1 -45 -6 -56 -10 -16 -5 -28 0 -45 18
-13 13 -36 27 -51 31 -35 8 -37 38 -3 56 20 11 28 10 49 -3 18 -12 26 -13 29
-4 3 9 7 9 20 -1 12 -10 14 -19 7 -38 -6 -15 -6 -24 0 -24 6 0 10 5 10 10 0 6
6 10 13 10 14 0 37 40 37 65 0 8 7 15 15 15 8 0 15 -4 15 -10 0 -5 -4 -10 -10
-10 -5 0 -10 -8 -10 -17 0 -12 3 -14 8 -6 5 8 31 11 80 8 l72 -4 0 30 c0 25
-4 29 -27 29 -24 1 -26 2 -10 11 9 5 22 7 27 4 6 -3 10 1 10 9 0 9 -6 16 -12
16 -10 0 -10 2 -1 8 12 8 14 28 10 147 -2 69 -3 70 -29 70 -14 0 -30 3 -34 8
-4 4 -24 5 -43 1 -26 -4 -32 -3 -21 5 8 5 32 13 52 16 21 4 38 11 38 15 0 5
-31 18 -70 30 -38 11 -72 25 -75 30 -8 12 53 43 74 37 9 -3 24 -8 34 -12 9 -4
17 -3 17 3 0 9 -37 25 -53 23 -4 -1 -5 20 -3 46 3 45 28 79 47 67 5 -3 9 2 9
11 0 24 27 48 54 48 23 0 23 3 29 121 3 66 6 219 6 339 1 210 0 217 -19 217
-11 0 -19 -3 -19 -7 1 -5 0 -10 -1 -13 -1 -3 -4 -18 -6 -35 -8 -47 -14 -43
-15 11 -2 47 -2 48 -9 14 l-7 -35 -2 39 c-1 50 -10 41 -21 -21 l-8 -48 -1 50
c-1 36 -4 46 -11 35 -8 -12 -10 -10 -11 10 -1 18 -3 20 -6 7 -3 -10 -11 -30
-19 -45 l-14 -27 0 41 c0 33 -4 43 -20 47 -16 4 -20 0 -21 -21 l-1 -27 -7 25
c-5 19 -14 25 -34 25 -15 -1 -27 2 -27 5 0 4 -20 7 -44 7 -55 1 -66 8 -66 39
0 23 -3 24 -65 24 -36 0 -65 -4 -65 -10 0 -5 -12 -20 -27 -34 -25 -23 -28 -24
-45 -9 -10 8 -20 24 -23 34 -4 11 -16 19 -29 19 -22 0 -23 -3 -22 -77z m264
-17 c27 -55 20 -110 -17 -143 -33 -28 -38 -28 -47 0 -3 12 -12 29 -19 37 -7 8
-15 28 -19 43 -6 23 -4 28 11 27 33 -4 43 0 43 16 0 8 -4 13 -8 10 -13 -8 -35
11 -28 23 4 6 18 11 32 11 13 0 24 5 24 10 0 19 8 10 28 -34z m-193 -97 c4 -5
18 -14 30 -19 13 -5 32 -21 41 -35 15 -23 16 -31 4 -63 -7 -21 -21 -44 -31
-53 -11 -9 -19 -21 -19 -28 0 -21 -15 -10 -47 34 -17 24 -32 54 -34 67 -3 29
18 81 30 74 5 -4 7 3 4 14 -6 21 11 28 22 9z m175 -193 c0 -2 -5 -17 -11 -34
-9 -26 -8 -35 7 -49 16 -16 17 -16 12 15 -2 18 -1 32 3 32 11 0 19 -29 19 -71
0 -32 -3 -39 -20 -39 -11 0 -20 -5 -20 -11 0 -11 -29 -44 -34 -38 -16 22 -55
100 -60 121 -9 39 23 74 69 75 19 1 35 0 35 -1z m-159 -136 c10 0 27 -16 39
-35 19 -30 20 -40 10 -69 -6 -18 -20 -42 -30 -51 -11 -10 -20 -24 -20 -32 0
-20 -18 -16 -25 6 -3 10 -17 31 -31 45 -34 33 -36 81 -4 124 16 22 27 29 34
22 5 -5 18 -10 27 -10z m137 -200 c-3 -16 -1 -30 4 -30 4 0 8 8 8 18 1 37 21
-17 23 -61 0 -24 7 -47 17 -54 9 -8 10 -12 3 -13 -6 0 -15 5 -18 10 -12 19
-30 10 -43 -20 -8 -16 -17 -30 -20 -30 -14 1 -73 140 -68 158 6 19 35 38 71
45 11 3 22 5 24 6 2 0 1 -12 -1 -29z m-133 -120 c20 0 45 -45 45 -81 0 -22
-10 -43 -34 -70 l-35 -38 -15 24 c-9 13 -24 32 -34 42 -32 31 -32 59 -1 108
27 42 31 45 45 31 8 -9 21 -16 29 -16z m142 -185 c5 -8 22 -16 38 -19 17 -2
38 -7 48 -11 10 -4 21 -5 24 -1 11 11 33 -16 33 -40 0 -12 5 -26 10 -29 6 -3
10 -13 10 -21 0 -11 -17 -14 -82 -14 -69 0 -85 -3 -104 -21 l-22 -21 -7 31
c-4 17 -11 31 -15 31 -12 0 -33 78 -26 96 3 7 20 17 38 23 46 13 46 13 55 -4z
m-177 -105 c0 -5 11 -10 23 -10 17 0 29 -10 42 -33 17 -32 17 -34 -4 -73 -21
-41 -59 -90 -64 -83 -2 2 -18 23 -35 45 -39 50 -39 65 -7 121 24 40 45 56 45
33z m236 -152 c5 2 8 10 6 18 -3 16 7 18 28 4 10 -6 20 -4 31 6 16 14 18 13
24 -6 4 -14 12 -19 22 -16 8 3 24 6 36 6 17 0 19 2 8 9 -8 5 -20 7 -28 4 -7
-3 -13 2 -13 11 0 13 4 15 19 6 13 -7 28 -7 45 0 31 11 34 1 6 -23 -21 -17
-28 -57 -10 -57 6 0 10 6 10 14 0 9 12 14 34 14 19 0 39 3 45 7 12 7 35 -41
26 -54 -2 -5 -21 -7 -41 -4 -29 3 -37 0 -41 -17 -6 -23 -23 -27 -23 -6 0 11
-10 14 -40 11 -29 -3 -42 0 -49 13 -9 15 -11 15 -30 -3 -21 -18 -22 -18 -37 3
-8 12 -20 19 -27 16 -18 -7 -37 39 -36 84 l1 37 12 -40 c7 -22 17 -39 22 -37z
m-67 -50 c24 -58 25 -96 2 -110 -12 -7 -21 -16 -21 -21 0 -4 -9 -17 -20 -29
-11 -12 -20 -16 -20 -10 0 7 -11 29 -24 50 -35 55 -39 85 -16 115 11 14 33 28
48 30 15 2 29 5 32 6 3 0 12 -14 19 -31z m-161 -118 c10 0 26 -14 36 -30 20
-35 14 -85 -14 -110 -9 -8 -19 -23 -23 -33 -5 -14 -13 -10 -48 28 -49 53 -52
79 -14 137 23 35 29 39 37 25 5 -10 17 -17 26 -17z m850 -217 c6 -15 12 -31
12 -35 0 -4 11 -31 25 -60 27 -57 29 -62 17 -54 -10 6 -9 -45 1 -61 4 -6 -2
-13 -13 -16 -11 -3 -20 0 -20 6 0 8 -3 7 -9 -1 -25 -40 -58 104 -45 199 7 56
14 60 32 22z m355 -98 c42 -40 45 -50 16 -58 -35 -9 -8 -38 73 -80 70 -36 139
-49 152 -28 3 4 26 14 51 21 54 15 73 34 55 55 -7 8 -22 15 -34 15 -19 1 -18
3 9 26 17 14 39 34 51 44 21 19 21 19 53 -25 18 -25 29 -45 24 -45 -4 0 -16
-17 -26 -38 -10 -20 -33 -55 -51 -76 l-33 -39 -84 0 c-125 0 -261 14 -287 29
-21 14 -50 66 -70 129 -7 23 -5 38 10 68 23 46 43 47 91 2z m-71 -667 c15 15
55 15 60 0 3 -9 15 -9 50 0 56 14 108 16 108 3 0 -5 10 -11 22 -13 30 -4 37
-38 9 -38 -12 0 -21 -5 -21 -12 0 -6 -3 -9 -6 -5 -3 3 -24 -1 -47 -9 -38 -14
-120 -14 -134 0 -3 3 -13 6 -22 6 -18 0 -81 56 -81 72 0 7 5 6 15 -2 13 -10
15 -9 16 11 l0 24 10 -24 c7 -19 12 -22 21 -13z m-1325 -1502 c-15 -7 -24 -16
-20 -20 5 -4 8 -13 8 -19 0 -7 8 -11 18 -11 21 2 21 3 2 -32 -25 -48 -19 -78
20 -108 43 -33 43 -46 5 -156 -17 -46 -31 -87 -31 -90 -1 -3 -5 9 -9 25 l-7
30 -8 -33 c-7 -29 -9 -31 -20 -15 -14 19 -10 37 6 28 5 -4 9 -2 9 3 0 19 -34
23 -47 6 -12 -17 -16 -15 -51 19 -21 20 -42 37 -47 37 -6 0 -31 15 -56 33 -44
31 -45 33 -42 82 4 68 22 142 45 189 18 35 23 38 51 33 18 -2 41 -1 52 4 11 4
49 8 85 7 60 0 63 -1 37 -12z m1807 -714 c7 -45 -13 -78 -59 -98 -19 -7 -36
-18 -40 -24 -3 -5 -15 -10 -26 -10 -10 0 -29 -5 -42 -12 -47 -24 -57 -28 -72
-28 -16 0 -38 -44 -49 -100 -8 -44 -51 -110 -72 -110 -8 0 -12 -5 -8 -11 4 -7
0 -9 -14 -5 -12 4 -26 1 -36 -9 -22 -22 -36 -10 -31 26 3 27 1 30 -16 26 -10
-3 -19 -4 -19 -3 0 2 29 40 65 86 38 49 90 101 127 127 35 25 93 75 129 110
44 43 78 68 100 72 47 10 56 5 63 -37z"/>
<path d="M5010 5303 c0 -8 -7 -27 -15 -43 -19 -38 -8 -39 22 -2 21 26 22 26
23 5 0 -12 5 -25 10 -28 20 -12 11 -76 -15 -107 l-25 -29 -10 25 c-14 37 -19
32 -13 -14 3 -22 1 -45 -4 -52 -28 -36 -19 -48 10 -14 l33 38 12 -49 c14 -55
7 -87 -27 -115 -28 -23 -28 -23 -36 11 -4 20 -11 28 -21 24 -17 -6 -19 -34 -1
-30 18 3 20 -45 2 -68 -16 -20 -16 -20 -10 2 3 12 1 24 -5 28 -5 3 -10 1 -10
-5 0 -6 -4 -9 -9 -6 -5 4 -12 -7 -16 -24 -4 -16 -13 -30 -21 -30 -18 0 -18 3
6 42 27 44 27 62 0 48 -22 -12 -27 -1 -7 19 10 11 9 12 -2 6 -10 -6 -12 -2 -7
13 4 13 1 22 -9 26 -11 4 -15 -2 -16 -22 l-1 -27 -7 25 c-5 17 -9 21 -15 12
-4 -6 -18 -12 -31 -12 -27 0 -35 -17 -35 -70 0 -21 -4 -42 -10 -45 -5 -3 -10
3 -10 15 0 13 -4 19 -11 14 -14 -8 -1 38 13 47 5 3 2 9 -8 13 -26 10 -33 -5
-25 -52 5 -23 5 -57 1 -75 -5 -17 -8 -28 -9 -23 -1 5 -10 1 -20 -8 -19 -17
-19 -17 -15 1 3 11 1 35 -4 54 -8 27 -10 29 -11 10 -1 -20 -3 -21 -16 -11 -13
10 -15 9 -17 -11 0 -13 -1 -32 0 -41 1 -10 -3 -18 -8 -18 -7 0 -7 -6 -1 -18 6
-10 7 -28 4 -40 -7 -29 13 -28 22 1 l8 22 4 -25 c3 -13 0 -26 -6 -28 -18 -6
-12 -22 9 -22 16 0 19 6 17 38 -2 35 0 37 28 38 17 0 29 6 27 12 -1 7 2 12 7
12 5 0 7 9 4 20 -6 23 15 28 35 8 14 -14 16 -62 2 -53 -5 3 -15 3 -20 0 -14
-9 7 -45 25 -45 18 0 18 1 0 -45 -13 -30 -18 -35 -30 -25 -12 10 -15 9 -15 -6
0 -11 -4 -26 -10 -34 -7 -12 -10 -11 -16 5 -4 11 -16 31 -26 44 -14 19 -18 20
-18 7 0 -13 -6 -11 -25 10 -30 32 -34 30 -28 -13 4 -24 11 -33 24 -33 26 0 31
-14 8 -28 -15 -10 -19 -10 -19 1 0 8 -9 22 -20 32 -11 10 -17 22 -14 26 9 15
-27 23 -47 11 -21 -14 -36 2 -20 21 7 9 4 16 -10 25 -11 7 -17 18 -13 24 4 6
1 9 -7 6 -8 -3 -13 -15 -12 -27 2 -11 -2 -21 -7 -21 -6 0 -6 -9 0 -26 13 -33
14 -32 -14 -30 -18 1 -22 4 -14 13 5 7 6 17 3 24 -5 7 -14 -3 -25 -26 -12 -26
-19 -33 -23 -22 -3 9 -1 18 6 21 9 3 9 5 0 5 -7 1 -13 7 -13 15 0 9 -8 12 -25
8 -15 -2 -25 0 -25 7 0 6 9 11 20 11 11 0 20 7 20 16 0 9 5 12 12 8 7 -4 8 -3
4 5 -4 6 -11 9 -16 6 -5 -3 -20 -1 -33 4 -20 8 -24 15 -20 33 4 19 3 20 -7 8
-9 -12 -11 -9 -6 17 4 22 1 33 -10 37 -8 3 -13 10 -9 15 3 5 1 12 -5 16 -22
14 -9 26 20 20 19 -4 30 -3 30 4 0 6 -7 11 -15 11 -21 0 -31 30 -14 40 7 5 17
6 22 3 5 -3 3 -9 -4 -14 -7 -4 -10 -12 -5 -16 4 -4 13 0 20 10 7 9 16 17 20
17 13 0 -5 -64 -21 -77 -9 -7 -10 -13 -4 -17 6 -4 8 -13 4 -21 -3 -8 0 -15 7
-15 6 0 9 4 5 9 -3 6 2 14 10 19 21 11 51 95 36 100 -13 4 -15 52 -2 52 5 0
12 -10 14 -22 l4 -23 8 23 c4 12 11 22 15 22 11 0 21 -47 19 -85 -1 -39 16
-133 26 -143 4 -4 4 15 1 41 -5 33 -3 53 5 63 10 12 9 13 -5 8 -14 -5 -16 1
-15 45 1 28 6 51 11 51 10 0 0 50 -13 65 -5 5 -9 0 -9 -14 0 -16 -4 -21 -14
-18 -8 3 -17 1 -20 -6 -3 -9 -7 -8 -14 2 -6 8 -15 10 -23 6 -9 -6 -11 -3 -6 8
5 12 1 17 -14 17 -17 0 -18 -3 -9 -21 13 -23 12 -26 -10 -29 -25 -4 -60 12
-60 26 0 17 -12 18 -27 3 -9 -9 -14 -5 -19 15 -7 30 -31 30 -26 0 2 -15 -3
-20 -23 -20 -14 0 -25 6 -25 14 0 7 4 11 9 8 5 -3 9 5 9 19 0 14 -4 22 -9 19
-5 -3 -9 -12 -9 -20 0 -8 -4 -14 -9 -14 -5 0 -7 -9 -4 -20 3 -11 12 -20 21
-20 13 0 12 -3 -3 -20 -17 -19 -17 -21 0 -40 21 -23 13 -39 -10 -20 -13 11
-15 9 -15 -13 0 -14 -4 -29 -10 -32 -6 -4 -10 5 -10 21 0 26 -1 26 -18 11 -23
-21 -29 -21 -35 1 -4 13 -5 11 -6 -5 0 -13 -6 -23 -12 -23 -7 0 -9 11 -5 30 3
19 1 30 -6 30 -6 0 -3 10 8 21 19 22 19 22 -2 11 -11 -6 -26 -18 -34 -27 -10
-12 -16 -13 -28 -3 -12 11 -17 9 -30 -10 -18 -28 -32 -28 -32 -2 0 18 -3 19
-20 10 -16 -9 -19 -8 -13 6 3 9 0 20 -8 25 -11 7 -11 9 4 9 11 0 17 8 18 23 0
12 3 17 5 10 9 -22 34 -1 34 28 0 19 5 29 15 29 10 0 15 10 15 28 0 15 3 48 6
75 5 40 4 46 -10 41 -11 -4 -16 -1 -16 10 0 9 5 16 10 16 6 0 10 12 10 28 l-1
27 -20 -35 -19 -35 1 45 c1 61 1 63 -15 48 -10 -9 -11 -15 -2 -20 8 -6 7 -8
-2 -8 -7 0 -15 7 -18 15 -4 8 -10 12 -16 9 -5 -3 -4 -11 3 -20 6 -7 12 -38 12
-68 1 -58 14 -68 34 -26 11 22 12 17 13 -42 0 -49 -3 -67 -12 -65 -8 1 -12 -9
-11 -28 l2 -30 -14 30 -14 30 -1 -42 c0 -23 -4 -45 -10 -48 -5 -3 -10 3 -10
14 0 12 -4 21 -9 21 -11 0 -21 -25 -21 -56 0 -13 -4 -24 -9 -24 -4 0 -7 21 -6
46 1 40 -1 48 -19 52 -12 3 -23 4 -24 1 -10 -12 -9 -128 1 -151 10 -24 18 -28
52 -28 39 0 39 0 15 -13 -21 -11 -58 -14 -92 -8 -5 0 -8 9 -8 19 0 12 -4 10
-13 -8 -7 -14 -21 -24 -31 -23 -14 1 -16 -4 -12 -23 9 -36 -10 -29 -20 8 -13
46 -56 56 -84 20 -10 -15 -20 -21 -20 -14 0 18 -18 15 -29 -7 -11 -19 8 -73
29 -86 5 -3 9 -31 8 -61 -2 -56 -2 -56 -30 -50 -22 4 -28 2 -29 -12 0 -9 -2
-35 -4 -57 -18 -156 -35 -489 -26 -498 7 -7 6 -16 -3 -26 -7 -9 -16 -46 -19
-84 -5 -75 2 -86 57 -81 16 2 37 -1 47 -7 10 -5 62 -11 116 -14 54 -2 121 -7
148 -10 28 -3 60 -7 73 -9 21 -2 41 -20 42 -36 0 -3 -13 -11 -30 -17 -28 -11
-30 -10 -30 13 0 14 -6 24 -14 24 -8 0 -23 2 -33 5 -10 3 -7 0 7 -7 27 -14 37
-58 14 -58 -22 0 -16 -14 10 -26 29 -14 49 -4 40 19 -4 13 -1 17 15 17 12 0
21 -5 21 -12 0 -6 8 -3 20 7 17 15 19 26 13 75 -3 32 -3 70 1 84 6 25 9 26 76
26 l70 0 -4 50 c-3 27 -1 52 3 55 12 7 22 -50 15 -85 -6 -29 -6 -30 33 -30 40
0 64 -12 79 -42 8 -15 11 -15 29 -2 16 12 19 25 17 67 -2 62 6 119 16 113 5
-3 9 -37 10 -77 2 -41 5 -76 8 -79 3 -3 50 -5 105 -5 86 -1 101 -3 114 -20 8
-11 15 -25 15 -32 0 -6 8 -14 19 -18 10 -3 29 -14 41 -25 19 -16 38 -20 102
-20 69 0 78 2 78 19 0 10 9 30 21 45 21 26 49 35 49 15 0 -6 9 -22 20 -36 24
-31 25 -43 4 -43 -10 0 -14 -6 -11 -14 3 -7 -5 -23 -19 -35 -25 -22 -32 -41
-14 -41 6 0 9 -3 9 -7 -3 -19 2 -33 11 -33 5 0 9 10 7 22 -1 17 4 24 22 26 19
3 22 8 19 33 -6 37 9 38 23 2 15 -38 2 -123 -25 -178 -13 -25 -20 -48 -16 -50
4 -3 3 -24 -3 -47 -27 -113 2 -411 57 -581 25 -76 54 -112 133 -164 29 -20 55
-44 58 -54 4 -11 10 -19 13 -19 4 0 29 29 55 63 51 68 95 112 138 139 29 18
39 15 39 -14 0 -63 77 39 124 164 12 34 38 66 96 120 73 68 120 135 85 122
-18 -7 -75 23 -82 44 -8 22 -34 52 -45 52 -4 0 -8 -15 -8 -32 0 -46 -12 -60
-60 -74 -50 -15 -87 -6 -139 33 -48 36 -52 43 -45 76 7 33 -10 36 -64 8 -43
-21 -194 -35 -210 -19 -8 8 -20 7 -41 -2 -52 -21 -58 -12 -55 92 3 90 16 171
34 213 5 11 11 32 14 46 8 37 42 76 73 84 41 10 53 24 53 61 0 30 5 36 37 49
66 28 114 29 204 5 76 -20 153 -31 309 -46 78 -7 100 -13 100 -25 0 -25 32
-119 41 -119 5 0 9 6 9 13 0 7 9 32 20 55 11 22 20 45 20 50 0 5 7 15 15 22
13 10 15 9 15 -8 0 -12 3 -23 8 -25 9 -6 -2 142 -13 167 -7 16 -5 18 18 14 30
-6 37 10 37 85 l0 49 -32 -4 c-29 -3 -33 0 -36 24 -2 18 -11 28 -28 32 -21 6
-24 11 -18 29 6 18 4 20 -7 10 -11 -9 -19 -8 -33 3 -11 8 -28 14 -38 14 -17 0
-45 37 -40 53 1 5 -7 16 -19 26 -14 11 -21 29 -22 55 -1 22 -3 34 -5 28 -2 -6
-10 -8 -18 -5 -8 3 -14 0 -14 -6 0 -15 -27 -2 -35 17 -4 9 -9 48 -11 85 -3 64
-2 70 26 98 16 17 34 28 39 24 16 -9 13 -52 -4 -59 -17 -6 -21 -36 -5 -36 6 0
10 7 10 15 0 9 6 18 14 21 20 8 27 42 10 48 -16 6 -18 34 -4 56 7 11 12 12 18
4 7 -12 36 -17 85 -15 22 1 27 6 27 29 1 38 22 62 56 63 17 1 22 3 12 6 -10 2
-18 8 -18 11 0 11 64 46 80 44 13 -2 13 -1 0 10 -25 22 -50 77 -39 84 20 12
-28 33 -95 42 l-67 9 6 -24 c3 -12 1 -24 -5 -24 -5 -1 -14 -2 -19 -3 -20 -2
-22 -15 -7 -39 18 -27 11 -61 -10 -53 -9 3 -14 -2 -14 -14 0 -11 4 -20 9 -20
19 0 21 -45 2 -60 -10 -8 -21 -23 -24 -32 -11 -31 -28 -20 -25 15 2 19 8 31
16 30 6 -2 12 1 12 6 0 5 3 17 7 27 5 14 3 16 -11 11 -15 -6 -17 -2 -14 26 2
17 8 31 14 30 7 -1 14 7 17 17 3 12 0 20 -8 20 -24 0 -57 171 -35 185 6 4 8
10 5 15 -3 5 3 27 15 49 22 45 40 178 21 167 -6 -4 -11 -14 -11 -22 0 -9 -16
-45 -36 -80 -37 -66 -62 -94 -49 -55 9 28 -2 59 -24 66 -29 9 -56 164 -31 180
22 13 8 25 -29 25 -39 0 -40 -1 -43 -37 -4 -50 8 -120 29 -163 18 -39 20 -140
3 -185 -15 -39 -51 -75 -77 -75 -12 0 -24 -6 -26 -12 -3 -7 -6 11 -6 40 -1 29
-6 62 -11 72 -8 15 -6 21 7 29 10 6 12 11 6 11 -19 0 -16 18 7 42 14 15 20 36
20 65 0 24 3 43 8 43 4 0 7 38 8 85 0 76 -2 85 -18 85 -10 0 -18 -3 -19 -7 0
-5 -2 -28 -4 -53 -1 -25 -10 -58 -19 -75 -9 -16 -16 -40 -16 -52 0 -25 -20
-73 -30 -73 -4 0 -12 11 -18 25 -7 15 -17 23 -26 19 -32 -12 -77 152 -46 171
6 3 10 15 10 26 0 17 -7 19 -80 19 -81 0 -85 -2 -81 -41 1 -9 -3 -29 -9 -45
l-12 -29 -14 35 c-8 19 -13 44 -10 55 4 17 1 21 -19 21 -14 0 -25 -6 -25 -13z
m185 -201 c-3 -7 -1 -11 4 -8 13 9 37 -51 51 -130 12 -66 11 -74 -6 -97 -13
-19 -28 -26 -50 -27 -33 0 -44 -13 -44 -53 -1 -31 -48 72 -66 145 -8 32 -12
67 -9 78 4 14 2 20 -8 20 -20 0 -27 34 -15 76 13 47 22 36 20 -24 l-2 -47 15
28 c9 15 20 27 25 27 6 0 10 5 10 10 0 6 11 22 25 36 14 14 25 35 26 47 0 13
6 4 15 -23 7 -25 12 -51 9 -58z m391 -218 c-7 -25 10 -69 35 -94 18 -19 25
-105 9 -115 -6 -3 -8 -11 -4 -17 3 -5 -8 -29 -25 -53 -17 -24 -31 -48 -31 -53
0 -5 -6 -15 -14 -21 -11 -9 -15 -6 -20 14 -4 14 -17 30 -31 35 -13 5 -32 26
-41 47 -10 21 -22 41 -27 44 -20 14 13 75 85 158 21 24 41 55 44 68 4 12 11
20 16 17 5 -3 7 -17 4 -30z m-250 -43 c10 -33 21 -58 25 -55 26 16 7 -151 -25
-211 -8 -17 -19 -43 -23 -60 l-7 -30 -4 38 c-2 20 -7 35 -13 32 -5 -4 -13 5
-18 18 -6 14 -15 28 -20 32 -13 7 -15 88 -2 113 37 77 46 98 47 116 3 86 14
87 40 7z m-328 -18 c6 -21 13 -47 14 -57 2 -11 9 -21 17 -24 9 -3 11 1 6 17
-8 26 4 49 16 30 14 -22 10 -73 -7 -115 -9 -22 -21 -50 -26 -64 l-10 -25 -13
25 c-19 33 -19 62 0 86 25 33 18 48 -12 24 l-28 -22 -14 44 c-13 42 -12 47 10
81 13 20 27 37 30 37 3 0 11 -17 17 -37z m415 -253 c9 -13 17 -38 17 -55 0
-17 4 -35 10 -41 24 -24 -8 -62 -68 -79 -20 -6 -22 -4 -16 19 5 20 2 26 -10
26 -18 0 -21 11 -6 26 6 6 12 44 15 85 2 42 10 89 16 105 l13 29 5 -45 c4 -25
14 -56 24 -70z m-245 20 c7 -33 17 -60 22 -60 6 0 10 -11 10 -24 0 -14 5 -37
11 -52 7 -20 7 -34 -1 -49 -12 -22 -79 -54 -122 -57 -16 -1 -28 -8 -28 -16 0
-25 -27 6 -34 38 -5 28 -26 43 -26 19 0 -22 -29 12 -35 41 -4 19 0 41 14 67
l19 38 11 -27 c6 -16 13 -28 15 -28 3 0 3 6 0 13 -5 14 27 57 42 57 5 0 24 23
43 50 18 28 37 50 40 50 4 0 13 -27 19 -60z m-1371 -123 c19 7 35 -17 22 -33
-12 -14 9 -54 27 -54 7 0 15 -8 18 -17 4 -10 4 -14 0 -11 -3 4 -13 0 -21 -8
-20 -19 -11 -27 30 -27 17 0 43 -8 56 -19 13 -10 18 -18 12 -18 -7 0 -11 -6
-10 -12 3 -25 -1 -39 -10 -33 -5 3 -12 -3 -14 -12 -3 -13 -5 -12 -6 6 -1 21
-4 23 -35 17 l-35 -7 -7 46 c-6 45 -29 70 -63 70 -8 0 -15 8 -17 17 -1 10 -5
36 -9 58 -7 39 -2 46 28 41 4 0 8 7 8 17 1 12 3 10 6 -5 3 -15 9 -20 20 -16z
m1672 -1358 c36 -1 65 -7 67 -14 6 -15 -30 -95 -55 -122 -18 -19 -28 -21 -103
-16 -108 6 -143 24 -154 81 l-6 30 81 -33 c73 -29 87 -31 122 -22 62 15 48 38
-36 54 -65 14 -121 45 -110 63 3 4 33 2 68 -6 34 -7 91 -14 126 -15z"/>
<path d="M9247 5291 c-5 -21 -17 -33 -51 -49 -24 -12 -46 -29 -49 -39 -3 -15
-6 -13 -17 9 -7 15 -19 30 -28 33 -11 4 -12 2 -4 -7 9 -12 17 -63 12 -80 -1
-5 -3 -14 -4 -20 -1 -7 -8 -12 -16 -10 -11 3 -10 -1 3 -15 17 -17 19 -17 36 6
l18 23 21 -33 c34 -56 38 -103 12 -139 -16 -22 -27 -29 -41 -25 -12 4 -21 1
-25 -9 -10 -26 -31 -18 -43 16 -15 43 -23 30 -22 -38 0 -32 -3 -63 -8 -68 -14
-19 -42 -148 -46 -214 -2 -35 -8 -69 -13 -75 -13 -17 -23 -77 -13 -77 4 0 25
16 45 35 l37 34 9 -23 c5 -13 14 -27 19 -31 38 -23 -14 -116 -71 -129 -26 -6
-28 -4 -35 36 l-6 43 -12 -29 c-8 -18 -15 -24 -19 -17 -10 15 -108 9 -114 -7
-2 -8 8 -12 27 -12 19 0 34 -6 37 -15 8 -19 23 -19 45 1 16 14 18 13 24 -16 8
-38 -12 -95 -29 -81 -6 5 -15 10 -21 11 -5 1 -9 8 -7 17 3 11 -2 13 -20 8 -31
-10 -42 -29 -18 -33 10 -2 24 -9 30 -17 6 -8 18 -11 26 -8 16 6 20 -22 4 -32
-5 -3 -7 -12 -4 -19 3 -8 -1 -30 -10 -49 -12 -30 -12 -38 0 -54 17 -23 18 -53
0 -78 -7 -11 -17 -35 -21 -53 -4 -21 -12 -32 -20 -28 -9 3 -11 -2 -8 -15 7
-27 28 -24 41 6 6 14 15 25 20 25 4 0 18 9 31 21 12 12 23 19 24 18 1 -2 10
-18 20 -36 9 -17 17 -45 17 -62 0 -34 -33 -71 -62 -71 -10 0 -18 -4 -18 -10 0
-5 -4 -10 -8 -10 -11 0 -32 46 -32 70 0 11 -4 20 -10 20 -5 0 -10 -11 -10 -25
0 -14 -7 -28 -15 -31 -8 -4 -15 -12 -15 -20 0 -7 -9 -18 -19 -24 -28 -15 -41
26 -14 45 17 13 17 14 -2 29 -25 19 -30 19 -44 3 -8 -10 -7 -21 2 -40 6 -15
15 -27 20 -27 4 0 7 -9 7 -21 0 -11 4 -18 9 -15 5 4 12 0 14 -6 4 -9 6 -7 6 3
1 19 35 52 44 42 12 -11 8 -48 -7 -69 -8 -11 -16 -36 -18 -55 -2 -23 -8 -34
-18 -33 -9 1 -15 -8 -15 -21 0 -13 5 -21 11 -18 8 3 10 -10 7 -41 -4 -31 -2
-46 6 -46 17 0 13 -26 -13 -78 -27 -52 -40 -148 -28 -202 7 -30 14 -37 52 -49
37 -12 45 -12 49 0 2 7 23 33 47 58 l43 44 6 -37 c12 -61 30 -43 32 34 3 67 1
71 -33 107 -30 33 -34 43 -29 73 4 18 12 39 20 45 7 5 17 19 23 30 10 19 11
19 20 -5 6 -14 17 -32 26 -39 14 -12 16 -9 16 27 0 39 23 129 41 164 24 46 -1
36 -31 -12 -23 -39 -40 -51 -40 -30 0 6 -6 10 -14 10 -19 0 -46 38 -46 65 0
18 67 113 80 115 3 0 12 -15 19 -32 14 -31 34 -58 44 -58 3 0 7 11 9 25 3 13
1 22 -3 19 -14 -8 -10 68 5 119 15 52 9 68 -14 37 -14 -18 -18 -19 -42 -8 -34
16 -52 49 -43 78 4 12 26 42 50 67 l43 45 8 -34 7 -33 8 35 c3 19 9 60 13 90
6 52 5 53 -9 30 -8 -14 -14 -19 -15 -12 0 6 -8 12 -19 12 -23 0 -51 41 -51 74
0 15 15 40 38 64 l38 40 20 -31 c10 -17 24 -39 30 -50 9 -14 11 0 11 68 0 65
4 90 17 103 9 10 16 32 16 48 l-1 29 -29 -32 c-35 -38 -63 -42 -84 -11 -26 37
-19 63 33 117 l49 50 6 -29 c7 -38 26 -39 27 -2 0 15 3 57 8 95 4 37 3 67 -1
67 -4 0 -8 -6 -8 -12 0 -14 -65 -17 -77 -4 -4 3 -8 24 -10 45 -4 36 0 44 44
85 26 25 51 46 55 46 5 0 8 -11 8 -24 0 -46 19 -37 24 11 4 27 11 67 16 91 16
67 13 82 -10 51 -29 -38 -67 -29 -76 18 -4 21 -10 30 -14 23 -5 -9 -9 -9 -14
-1 -4 6 4 16 18 22 13 6 27 20 29 30 3 11 14 19 24 19 12 0 24 12 32 33 l14
32 4 -27 c7 -45 23 -32 23 17 0 44 0 45 -34 45 -29 0 -34 -4 -39 -29z m-137
-466 c0 -8 4 -15 8 -15 16 0 32 -51 26 -78 -7 -29 -41 -72 -57 -72 -6 0 -18
-7 -27 -15 -16 -14 -18 -12 -30 29 -14 53 -8 79 34 128 34 40 46 46 46 23z
m-69 -592 c34 -56 38 -66 26 -88 -11 -23 -29 -35 -73 -51 -30 -10 -32 -9 -43
21 -18 52 -13 75 27 116 20 22 38 39 39 39 0 0 11 -17 24 -37z m-96 -573 c22
-27 26 -77 7 -99 -22 -26 -82 -39 -82 -18 0 9 -4 17 -9 19 -5 2 -12 20 -16 40
-7 34 -4 40 36 77 41 38 44 39 47 18 2 -12 10 -29 17 -37z m-22 -260 c9 -22
17 -52 17 -66 0 -33 -37 -66 -78 -69 -29 -2 -33 1 -42 34 -17 63 -13 78 33
110 23 17 44 30 47 31 3 0 13 -18 23 -40z"/>
<path d="M9710 5286 c0 -19 -4 -37 -9 -40 -8 -6 -15 -45 -27 -161 -10 -96 -25
-101 -20 -7 3 45 1 82 -2 81 -4 0 -16 -4 -27 -9 -16 -7 -17 -9 -3 -9 10 -1 16
-9 15 -21 -1 -11 -4 -20 -8 -20 -4 0 -10 -10 -14 -22 -4 -14 -8 -18 -12 -10
-2 6 -13 12 -24 12 -16 0 -19 -7 -19 -45 0 -25 3 -46 8 -46 4 -1 22 -3 41 -5
40 -3 49 -11 53 -44 3 -24 0 -25 -54 -26 -57 -2 -57 -2 -61 30 l-4 31 -2 -35
c-1 -24 -4 -31 -10 -21 -7 11 -12 9 -21 -10 -7 -13 -18 -27 -24 -31 -8 -5 -7
-8 2 -8 7 0 15 7 18 15 4 8 14 15 23 15 14 0 14 -2 1 -10 -13 -8 -12 -10 3
-10 9 0 17 5 17 10 0 6 5 10 10 10 6 0 10 -7 10 -15 0 -8 5 -15 10 -15 6 0 10
-7 10 -15 0 -10 10 -15 29 -15 32 0 49 -16 56 -51 3 -13 11 -28 18 -34 24 -18
36 -48 26 -67 -12 -23 -39 -23 -40 0 0 14 -2 14 -9 -3 -8 -21 -15 -12 -22 30
-2 11 -11 21 -20 23 -12 2 -20 -11 -32 -53 -14 -46 -15 -69 -6 -137 5 -46 10
-85 10 -89 0 -4 17 2 38 12 l37 20 3 -30 c2 -21 7 -28 18 -24 8 3 14 -1 14
-11 0 -9 5 -16 10 -16 6 0 10 9 10 21 0 16 4 19 23 13 12 -3 28 -11 35 -17 18
-14 75 -19 82 -7 4 6 23 13 44 15 21 3 46 10 56 15 30 16 6 60 -31 60 -32 0
-46 15 -25 27 17 10 31 69 17 77 -6 4 -8 13 -5 20 6 17 -29 27 -66 19 -37 -7
-51 24 -14 33 13 3 24 11 23 18 -1 6 1 19 5 28 4 9 3 26 -4 37 -10 19 -8 21
20 21 24 0 30 4 30 21 0 11 -4 17 -10 14 -9 -5 -15 15 -11 38 2 12 -67 8 -72
-5 -2 -7 -2 0 0 15 5 26 3 27 -24 21 -15 -4 -28 -7 -29 -8 -5 -8 11 -94 17
-90 5 3 19 -2 31 -10 22 -16 22 -16 1 -16 -11 0 -26 -7 -33 -15 -7 -8 -18 -15
-25 -15 -20 0 -46 36 -39 54 4 11 1 16 -10 16 -30 0 -16 19 17 22 23 2 32 8
32 21 0 9 -4 16 -8 15 -5 -2 -13 5 -18 15 -6 9 -14 15 -20 12 -5 -4 -9 -1 -9
4 0 6 6 11 14 11 9 0 12 7 9 19 -7 29 25 31 75 3 l43 -23 -2 56 c-2 38 -9 65
-21 81 -11 13 -15 24 -10 24 15 0 24 31 12 44 -6 9 -5 19 6 34 14 20 14 22 -5
22 -11 0 -23 5 -26 10 -3 6 1 10 9 10 18 0 20 13 6 40 -6 11 -16 17 -24 14 -9
-4 -13 4 -14 23 0 51 -1 53 -37 53 -33 0 -35 -2 -35 -34z"/>
<path d="M9406 5258 c-14 -110 -18 -173 -11 -166 4 4 14 1 22 -7 17 -17 53
-20 53 -5 0 6 11 15 25 20 14 5 25 17 26 27 0 10 2 26 4 36 2 9 -1 17 -6 17
-5 0 -6 20 -2 45 4 31 2 45 -6 45 -6 0 -11 6 -11 13 0 6 -10 13 -22 13 -13 1
-33 5 -44 9 -19 6 -22 2 -28 -47z"/>
<path d="M4838 5269 c-15 -30 -15 -30 -23 -7 -8 23 -8 23 -12 -4 -2 -16 -9
-28 -15 -28 -6 0 -8 3 -5 6 3 4 2 16 -4 26 -8 15 -14 17 -22 9 -15 -15 -27
-14 -27 4 0 8 -5 15 -11 15 -6 0 -8 -9 -4 -20 6 -20 -9 -28 -20 -10 -12 19
-25 10 -25 -19 0 -35 37 -51 58 -24 6 9 12 12 12 5 0 -7 6 -12 13 -12 14 0 15
-48 1 -72 -4 -7 -4 -10 1 -6 14 13 35 -13 35 -46 1 -28 2 -29 12 -11 20 33 20
55 1 48 -13 -5 -15 -2 -11 15 4 12 2 25 -3 28 -5 3 -9 10 -9 16 0 6 9 1 20
-12 20 -23 21 -23 35 -4 13 17 14 17 15 2 0 -12 5 -15 17 -11 12 5 15 2 10
-10 -5 -12 -1 -17 13 -17 10 0 21 4 24 8 7 11 -32 44 -44 37 -5 -3 -11 -1 -14
4 -6 10 11 26 28 26 5 0 11 5 13 12 3 8 -6 10 -27 6 -28 -4 -31 -2 -28 19 2
13 10 23 20 23 24 0 35 15 18 25 -23 14 -26 13 -42 -21z"/>
<path d="M1729 5241 c-8 -2 -17 -9 -21 -15 -4 -6 -13 -12 -20 -12 -28 -3 -78
-26 -72 -35 3 -5 -8 -12 -25 -15 -17 -4 -31 -10 -31 -15 0 -4 -7 -15 -16 -24
-14 -13 -19 -14 -25 -3 -7 11 -9 10 -9 -1 0 -8 -11 -29 -25 -47 -17 -23 -21
-34 -12 -37 9 -4 8 -8 -3 -16 -21 -15 -30 -14 -30 4 0 8 -5 15 -11 15 -6 0 -8
-8 -4 -19 4 -14 -4 -30 -30 -55 -19 -19 -35 -37 -35 -39 0 -3 13 -7 29 -10 38
-8 47 -48 16 -77 -12 -11 -27 -20 -33 -20 -7 0 -12 -9 -12 -21 0 -11 -7 -27
-15 -35 -19 -20 -20 -58 -1 -51 23 9 25 -1 11 -59 -14 -60 -16 -60 52 2 19 18
71 50 114 71 60 29 75 40 67 50 -8 10 -4 13 16 13 14 0 26 -4 26 -10 0 -15
110 10 190 43 34 14 276 22 303 10 12 -6 35 -14 51 -19 16 -5 31 -13 33 -19 4
-12 -90 -11 -132 1 -16 5 -70 9 -120 9 -75 0 -95 -3 -120 -21 -16 -12 -50 -32
-75 -45 -117 -63 -218 -141 -350 -269 -72 -72 -83 -66 -74 39 4 42 3 71 -3 71
-16 0 -33 -23 -33 -45 0 -31 -23 -75 -39 -75 -11 0 -10 -4 4 -13 10 -8 15 -19
11 -25 -4 -7 9 -27 29 -47 19 -20 35 -44 35 -55 0 -10 5 -22 10 -25 19 -12 10
-22 -15 -17 -56 10 -71 -40 -29 -95 l26 -35 23 40 c12 21 25 57 29 78 11 61
38 144 47 144 5 0 9 7 9 15 0 28 43 17 128 -32 2 -1 -6 -14 -18 -30 -17 -24
-19 -34 -11 -56 8 -22 8 -27 -4 -27 -8 0 -12 -6 -9 -14 3 -8 1 -17 -5 -21 -6
-3 -11 -13 -11 -21 0 -29 27 -44 79 -44 37 0 51 -4 51 -14 0 -7 7 -19 15 -26
11 -9 12 -17 4 -31 -9 -17 -5 -22 28 -36 37 -15 79 -18 226 -13 50 1 67 5 67
16 0 8 5 14 10 14 6 0 10 5 10 11 0 7 11 22 26 35 30 29 82 32 91 7 6 -18 69
-83 80 -83 2 0 19 -10 35 -22 41 -28 177 -38 197 -14 11 14 11 16 -5 16 -11 0
-26 5 -34 11 -13 8 -12 9 4 7 10 -2 21 3 23 10 3 8 -6 12 -24 12 -43 0 -46 9
-12 41 36 33 42 35 60 13 10 -12 10 -20 1 -35 -7 -10 -8 -19 -3 -19 6 0 13 5
16 10 4 6 21 8 42 4 39 -7 53 4 53 43 0 23 -53 71 -72 65 -5 -1 -7 2 -3 8 3 5
0 10 -7 10 -8 0 -5 5 6 11 10 6 35 8 57 5 47 -8 51 7 14 50 -14 16 -25 40 -25
53 0 20 4 23 30 19 16 -2 31 0 33 6 11 30 54 -133 57 -214 0 -8 11 8 25 36 34
73 65 105 89 92 14 -8 24 -8 37 0 14 9 17 9 14 -1 -9 -24 -10 -127 -2 -127 5
0 7 -9 4 -20 -4 -15 0 -20 14 -20 10 0 19 -5 19 -11 0 -5 4 -8 9 -4 5 3 12 -4
16 -15 4 -11 11 -18 16 -15 5 4 9 1 9 -5 0 -8 7 -9 18 -5 9 4 25 7 35 7 12 -1
16 4 13 16 -3 9 -1 23 3 31 8 12 12 12 25 2 14 -12 16 -9 16 20 0 35 -19 81
-20 49 -1 -12 -4 -11 -15 4 -10 13 -11 24 -5 37 6 10 10 25 10 35 0 13 -3 14
-15 4 -12 -10 -15 -10 -15 3 0 18 24 39 34 30 4 -4 11 -1 16 7 9 15 11 12 26
-37 7 -26 30 -1 30 32 0 19 6 41 13 48 11 10 12 3 7 -38 -3 -27 -9 -98 -12
-157 -6 -99 -5 -106 12 -110 22 -4 47 48 46 94 -1 15 3 30 8 33 6 4 10 17 10
31 0 13 5 24 10 24 6 0 10 11 10 24 0 29 20 46 21 19 0 -10 0 -46 -1 -80 -1
-35 3 -63 8 -63 11 0 22 48 22 100 0 32 4 39 25 44 14 4 23 11 20 16 -3 6 1
10 9 10 8 0 18 -4 21 -10 3 -5 1 -10 -6 -10 -7 0 -9 -3 -6 -6 4 -4 13 -1 22 6
12 10 15 10 15 -3 0 -8 7 -18 15 -21 12 -4 13 -10 6 -25 -8 -14 -8 -20 1 -23
14 -5 -7 -75 -25 -81 -6 -2 -12 -18 -13 -36 -2 -46 -20 -59 -86 -65 -32 -2
-62 -7 -68 -11 -5 -3 -10 0 -10 7 0 8 -5 6 -11 -4 -12 -21 -35 -24 -42 -5 -6
13 -8 -1 -11 -78 -1 -27 -5 -56 -10 -63 -4 -7 -6 -15 -3 -18 6 -6 81 -12 250
-19 l137 -5 0 22 c0 13 7 102 16 198 22 249 23 258 34 332 13 84 13 185 1 192
-5 4 -12 0 -14 -6 -4 -10 -8 -9 -16 2 -10 13 -12 13 -21 0 -8 -13 -13 -13 -30
-2 -11 7 -25 10 -31 6 -20 -12 -39 18 -39 61 0 48 -19 65 -39 33 -8 -13 -18
-17 -31 -13 -14 4 -20 2 -20 -8 0 -8 9 -17 20 -20 21 -5 37 -33 26 -45 -4 -3
-11 0 -15 7 -5 7 -20 14 -35 14 -14 1 -28 8 -31 15 -3 7 -10 10 -16 6 -8 -4
-7 -9 2 -16 9 -6 6 -7 -11 -2 -14 4 -36 8 -48 9 -13 1 -28 8 -33 16 -6 10 -9
8 -9 -10 0 -13 -3 -21 -7 -17 -5 4 -8 18 -8 29 0 17 -5 21 -21 20 -19 -2 -24
5 -32 45 -7 33 -10 39 -11 20 -1 -27 -14 -37 -25 -19 -4 5 0 12 6 14 10 4 10
6 1 6 -7 1 -13 8 -13 16 0 19 -9 19 -49 -1 -23 -12 -29 -19 -22 -28 7 -9 7
-16 -1 -24 -9 -9 -9 -12 -1 -12 7 0 14 4 18 10 3 5 12 7 20 4 8 -4 12 -11 9
-16 -4 -6 1 -6 13 1 23 12 33 6 33 -19 0 -9 7 -17 15 -18 8 -1 22 -3 30 -4 8
-1 12 -5 9 -10 -3 -4 0 -8 5 -8 6 0 11 -9 11 -21 0 -14 -5 -19 -17 -17 -11 2
-18 12 -17 27 1 17 -4 21 -18 18 -11 -3 -22 2 -28 14 -9 15 -14 17 -29 7 -11
-7 -26 -8 -37 -3 -11 5 -22 7 -26 7 -9 -2 -12 14 -8 38 1 10 -5 7 -18 -7 -11
-13 -23 -23 -27 -23 -4 0 -14 -8 -22 -17 -10 -13 -16 -15 -19 -5 -9 19 -24 14
-24 -8 0 -11 -4 -20 -10 -20 -5 0 -10 18 -10 40 0 22 -4 40 -10 40 -5 0 -10
10 -10 22 0 21 -1 21 -13 3 -11 -14 -16 -15 -22 -5 -5 9 -4 15 3 18 19 6 14
23 -5 20 -11 -2 -18 3 -19 12 0 8 -8 38 -17 66 -10 29 -17 56 -16 60 2 15 -13
54 -21 54 -4 0 -12 17 -18 38 -6 21 -20 47 -30 58 -10 11 -27 32 -36 47 -10
15 -22 24 -27 21 -5 -3 -9 1 -9 8 0 9 -3 9 -10 -2 -8 -12 -10 -9 -10 12 0 35
-34 56 -49 31 -9 -16 -10 -16 -11 3 0 28 -10 36 -27 23 -9 -8 -13 -8 -13 -1 0
6 -7 9 -15 6 -8 -4 -15 -1 -15 5 0 7 -9 9 -23 6 -15 -4 -28 -1 -37 9 -8 11
-16 13 -25 6 -13 -11 -81 22 -102 49 -7 9 -12 12 -13 6 0 -17 14 -32 38 -39
24 -8 32 -51 10 -58 -7 -3 -13 -11 -13 -19 0 -15 -33 -125 -45 -149 -10 -20
-30 -19 -43 1 -8 12 -7 38 3 88 7 39 11 73 8 76 -9 9 -42 -108 -42 -152 -1
-51 -18 -72 -41 -53 -8 7 -15 21 -15 31 0 26 -17 33 -25 9 -8 -26 -42 -26 -50
1 -4 11 -7 51 -7 90 0 38 -3 71 -8 74 -4 2 -5 16 -2 30 3 16 0 25 -8 25 -7 0
-10 -6 -7 -13 4 -10 -2 -13 -20 -9 -19 4 -22 7 -11 14 12 9 6 8 -32 -5 -3 -1
-6 1 -7 6 -6 17 -2 27 11 27 8 0 18 5 22 11 4 8 -1 9 -16 4 -12 -4 -20 -3 -17
1 5 9 -90 13 -114 5z"/>
<path d="M1351 5178 c-1 -57 -20 -65 -22 -10 -3 81 -16 -62 -17 -183 0 -109 1
-116 12 -80 15 50 51 122 76 155 25 32 33 150 11 158 -11 4 -13 -5 -8 -45 3
-27 2 -55 -2 -62 -12 -19 -19 -2 -19 53 -2 59 -11 75 -13 20 l-2 -39 -7 40 -7
40 -2 -47z"/>
<path d="M4510 5199 c0 -6 -11 -20 -25 -31 -14 -11 -24 -29 -24 -41 1 -17 2
-18 6 -4 2 9 9 15 14 12 5 -4 6 -17 3 -30 -7 -28 12 -43 21 -15 7 23 25 27 25
5 0 -8 9 -20 20 -27 11 -7 20 -20 20 -30 0 -9 4 -20 10 -23 5 -3 7 0 4 8 -3 8
-1 18 5 22 6 3 11 3 11 -2 0 -4 11 -21 25 -37 23 -27 25 -28 25 -8 0 13 6 22
15 22 13 0 14 4 5 21 -7 11 -9 27 -6 35 3 8 1 14 -4 14 -6 0 -10 -8 -10 -17
-1 -17 -1 -17 -11 0 -5 9 -18 17 -27 18 -9 0 -12 3 -5 5 7 3 11 11 9 17 -1 7
-1 9 1 5 7 -12 33 -10 33 2 0 6 -4 10 -10 10 -5 0 -10 10 -11 23 0 12 -3 16
-6 10 -2 -7 -12 -13 -20 -13 -9 0 -13 -6 -9 -15 3 -8 1 -15 -4 -15 -9 0 -14
13 -11 35 0 6 -15 20 -34 33 -19 12 -35 17 -35 11z"/>
<path d="M9450 4785 c-1 -5 -1 -18 -1 -28 2 -15 -1 -16 -24 -5 -22 10 -27 9
-39 -8 -8 -10 -18 -16 -22 -12 -10 10 -40 -32 -48 -67 -15 -69 -15 -75 -1 -75
8 0 19 9 25 20 13 24 55 28 46 5 -3 -9 0 -15 8 -15 17 0 26 -22 26 -61 0 -32
-15 -37 -41 -13 -21 19 -46 10 -29 -11 7 -9 6 -16 -5 -25 -24 -20 -18 -38 15
-45 17 -4 30 -13 30 -21 0 -8 5 -14 10 -14 6 0 8 10 4 24 -3 13 -2 26 4 29 19
12 71 17 77 7 10 -16 25 -12 19 5 -8 19 6 19 33 0 l21 -15 -5 82 c-7 96 -21
116 -77 113 -20 -1 -40 -5 -43 -9 -13 -12 -31 -5 -36 14 -4 17 0 22 24 27 38
7 50 29 39 73 -4 19 -9 31 -10 25z"/>
<path d="M6317 4515 c13 -9 20 -22 17 -30 -4 -9 0 -15 9 -15 8 0 17 9 20 20 5
18 8 19 31 9 26 -12 44 -45 31 -57 -4 -4 -10 -1 -12 6 -6 15 -24 15 -91 0 -46
-11 -54 -17 -59 -40 -5 -27 -23 -40 -23 -16 0 6 -2 9 -5 7 -2 -3 7 -68 20
-145 28 -159 30 -186 12 -182 -6 2 -21 -6 -32 -17 l-21 -21 22 -22 c16 -18 27
-22 47 -17 28 7 37 -10 18 -31 -4 -5 -13 -28 -18 -50 -10 -41 -10 -42 23 -52
20 -6 34 -6 34 -1 0 5 -4 9 -10 9 -5 0 -10 7 -10 15 0 21 49 20 57 -1 4 -10 0
-22 -9 -28 -11 -8 5 -12 70 -14 46 -1 92 0 102 3 19 6 34 42 19 47 -10 3 29
88 40 88 4 0 12 -5 19 -12 6 -6 15 -8 19 -4 7 7 -8 20 -32 30 -6 2 -5 9 3 17
19 20 15 26 -20 26 -18 0 -34 5 -36 11 -2 7 -12 12 -22 12 -38 0 -41 75 -4
119 14 17 32 31 39 31 26 0 33 31 20 89 -8 30 -12 59 -9 62 8 14 -8 39 -26 39
-26 0 -80 21 -80 31 0 5 7 9 15 9 8 0 15 5 15 10 0 6 8 10 18 10 10 0 23 5 30
12 9 9 12 4 13 -22 2 -32 2 -32 6 -7 3 16 11 31 19 34 8 3 14 8 14 12 0 11
-108 30 -210 36 -89 6 -94 5 -73 -10z"/>
<path d="M9474 4438 c-2 -3 -2 -13 2 -21 6 -15 -21 -31 -37 -21 -6 3 -16 1
-23 -5 -15 -13 -76 -4 -76 11 0 5 -7 2 -16 -7 -10 -9 -25 -14 -35 -12 -14 4
-19 0 -19 -13 0 -11 -5 -22 -10 -25 -6 -4 -10 -18 -9 -33 1 -30 -30 -245 -37
-251 -2 -2 -8 7 -13 20 -8 21 -10 21 -10 4 0 -23 21 -55 37 -55 6 0 12 -5 14
-11 3 -9 10 -9 26 0 12 7 50 11 84 9 57 -3 63 -1 74 21 l12 23 7 -22 c6 -18
12 -21 35 -17 15 3 32 1 39 -6 14 -14 15 -41 1 -32 -5 3 -10 1 -10 -5 0 -6 -4
-8 -10 -5 -5 3 -10 -1 -10 -9 0 -9 5 -16 10 -16 6 0 10 -7 10 -16 0 -8 7 -22
15 -30 20 -21 19 -29 -7 -55 -16 -15 -19 -23 -10 -26 6 -3 12 -21 12 -40 0
-27 -3 -34 -15 -29 -8 3 -15 1 -15 -4 0 -5 9 -12 20 -15 14 -4 22 -18 26 -45
4 -21 13 -41 21 -45 12 -4 13 -8 4 -19 -14 -16 -4 -46 21 -64 10 -7 18 -22 18
-34 0 -17 2 -19 16 -7 13 10 17 10 24 0 10 -18 33 -3 26 16 -7 18 16 53 44 68
20 11 19 12 -14 30 -34 18 -51 43 -23 32 9 -3 14 8 16 37 5 68 5 80 -3 109 -7
21 -5 27 8 27 9 0 16 5 16 11 0 6 -6 9 -12 7 -7 -3 -22 4 -33 14 -20 19 -20
19 0 12 18 -7 18 -6 7 9 -8 9 -11 21 -7 28 6 8 9 8 15 0 5 -9 14 -9 35 -1 22
8 30 7 39 -5 13 -18 62 -20 156 -7 45 6 67 5 72 -2 5 -7 8 -6 8 4 0 13 1 13
10 0 5 -8 10 -13 11 -10 8 43 -2 71 -24 67 -5 -1 -10 22 -11 52 -1 47 1 55 21
64 19 8 26 7 36 -7 13 -18 47 -13 47 6 0 6 -6 8 -14 5 -7 -3 -20 2 -29 11 -31
33 -46 42 -61 36 -9 -3 -13 -10 -10 -15 3 -5 2 -9 -3 -9 -4 0 -17 -20 -27 -44
-15 -33 -24 -42 -38 -38 -10 2 -17 12 -16 20 2 9 -3 17 -10 17 -7 0 -16 6 -21
13 -4 7 -18 11 -31 10 -19 -3 -25 4 -34 37 -12 42 -36 56 -61 35 -8 -7 -15
-23 -15 -36 0 -13 -4 -24 -9 -24 -15 0 -25 21 -14 29 6 3 13 18 16 32 4 17 18
31 37 39 34 14 62 7 54 -14 -6 -15 28 -40 40 -29 15 15 5 51 -16 58 -19 6 -20
8 -6 12 9 2 28 -3 42 -13 20 -13 26 -25 26 -55 0 -42 15 -60 23 -29 3 14 10
18 21 14 10 -4 25 1 36 11 12 11 26 14 40 10 35 -11 88 3 95 25 4 11 15 20 26
20 16 0 18 -5 13 -24 -5 -23 -4 -24 27 -21 38 5 65 25 33 25 -10 0 -25 9 -32
21 -12 18 -11 21 7 26 34 9 14 22 -24 16 -24 -4 -39 -1 -50 10 -19 20 -41 13
-49 -16 l-6 -22 -18 21 c-10 12 -33 25 -50 29 -18 3 -32 11 -32 16 0 17 -24
36 -41 32 -9 -3 -23 2 -31 10 -8 9 -29 14 -47 13 -18 -1 -34 1 -37 5 -2 4 -13
5 -24 2 -11 -3 -20 -1 -20 3 0 5 -13 15 -29 22 -17 7 -32 23 -35 37 -6 24 -29
34 -40 17 -8 -13 18 -82 31 -82 7 0 13 -4 13 -10 0 -5 7 -10 15 -10 8 0 15 5
15 10 0 6 4 10 9 10 7 0 19 -25 25 -52 0 -3 4 -10 9 -14 4 -4 7 -15 7 -24 0
-13 -9 -17 -40 -17 -36 0 -40 2 -40 24 0 19 -3 22 -17 15 -10 -5 -24 -7 -30
-5 -17 6 -10 -129 11 -220 19 -83 20 -102 3 -119 -7 -7 -16 -21 -20 -30 -3
-10 -12 -15 -20 -12 -11 4 -16 -7 -19 -46 -5 -48 -13 -69 -23 -59 -2 3 0 33 6
67 8 50 7 67 -5 83 -15 22 -7 79 20 130 10 20 12 35 5 47 -5 9 -12 35 -15 56
-4 22 -11 45 -16 51 -6 7 -8 20 -4 29 5 12 0 16 -22 16 -15 0 -24 -3 -21 -7 4
-3 2 -12 -4 -20 -9 -9 -8 -13 0 -13 17 0 13 -17 -6 -24 -11 -5 -22 -1 -30 10
-7 10 -16 14 -20 11 -3 -4 -15 0 -25 10 -17 15 -18 15 -18 -1 0 -13 -7 -17
-32 -14 -40 4 -52 34 -16 41 20 4 20 4 -4 6 -25 1 -42 21 -18 21 6 0 10 9 10
21 0 17 4 19 23 13 12 -4 24 -10 27 -14 7 -10 80 -7 80 4 0 5 6 3 13 -3 10 -8
21 -7 40 2 27 12 39 31 13 21 -7 -3 -16 1 -19 9 -4 10 0 13 12 10 19 -5 31 19
31 62 0 18 -6 20 -46 20 -25 0 -48 -3 -50 -7z"/>
<path d="M8244 4375 c4 -10 -2 -11 -24 -5 -16 4 -31 6 -33 3 -3 -2 -20 -4 -38
-5 -47 0 -69 -7 -69 -23 0 -15 -22 -26 -63 -31 -15 -2 -39 -11 -53 -20 -13 -9
-27 -14 -30 -11 -3 3 -16 -6 -28 -20 -19 -21 -26 -24 -42 -15 -10 6 -18 14
-16 19 2 4 -2 9 -9 12 -8 2 -10 -2 -6 -13 17 -41 20 -51 13 -44 -20 17 -91
-65 -114 -131 -45 -131 -50 -215 -15 -253 21 -24 28 -15 42 50 13 63 51 148
91 206 42 62 103 79 295 82 145 3 152 2 203 -24 66 -32 92 -64 92 -111 1 -20
8 -54 17 -76 9 -22 17 -62 17 -90 4 -101 6 -115 18 -113 7 2 15 -12 19 -32 5
-30 7 -31 8 -8 0 14 4 33 7 41 3 9 -3 17 -18 21 -14 4 -19 9 -12 13 6 5 14 24
17 43 9 45 10 196 2 235 -3 17 -8 57 -10 90 -6 80 -28 136 -65 160 -16 11 -30
23 -30 28 0 4 -12 7 -26 7 -14 0 -34 5 -45 11 -11 6 -38 12 -61 14 -30 3 -38
1 -34 -10z"/>
<path d="M6011 4067 c-6 -12 -15 -50 -19 -85 -8 -56 -7 -65 10 -76 18 -13 19
-19 7 -95 -6 -45 -9 -84 -6 -87 2 -3 45 -6 95 -7 57 -1 88 -6 84 -12 -3 -5 1
-4 10 2 18 15 29 7 21 -15 -5 -11 -2 -14 10 -9 28 11 21 -29 -14 -80 -25 -36
-29 -47 -18 -54 24 -15 29 -11 50 35 10 24 26 46 34 50 23 9 18 41 -10 56 -13
7 -23 18 -22 23 1 6 -5 12 -13 13 -8 0 -23 2 -33 2 -26 3 -42 44 -28 71 11 19
9 21 -19 21 -16 0 -30 -4 -30 -10 0 -5 -5 -10 -11 -10 -6 0 -8 9 -4 20 5 16 2
20 -19 20 -14 0 -28 4 -31 10 -6 9 10 49 24 60 8 6 42 82 42 95 1 18 22 36 35
31 8 -3 18 3 24 14 14 26 13 33 -5 26 -8 -3 -15 -1 -15 4 0 18 -18 10 -23 -10
-6 -23 -27 -27 -27 -5 0 8 -3 15 -7 16 -5 0 -24 2 -44 4 -29 3 -38 0 -48 -18z"/>
<path d="M2754 4010 c-3 -14 -12 -47 -20 -74 -28 -95 -30 -93 102 -94 63 -1
119 -4 124 -7 18 -11 30 37 29 122 0 58 -3 81 -9 68 l-9 -20 0 20 c-1 12 -4
16 -9 9 -12 -18 -63 -24 -69 -8 -6 17 -40 19 -45 2 -3 -7 -11 -9 -24 -4 -41
18 -64 13 -70 -14z"/>
<path d="M10915 3990 c-3 -5 -12 -7 -20 -3 -9 3 -15 -1 -15 -11 0 -18 -35 -22
-45 -6 -3 6 -23 10 -44 10 -30 0 -43 -6 -66 -34 -15 -19 -36 -56 -47 -82 -22
-59 -22 -58 -3 -50 8 3 15 1 15 -4 0 -6 -7 -10 -15 -10 -8 0 -15 -5 -15 -12 0
-6 -7 -19 -15 -28 -11 -12 -12 -24 -6 -45 5 -17 10 -24 10 -17 1 6 6 12 12 12
5 0 7 -4 4 -10 -6 -10 13 -13 85 -14 28 -1 36 -5 38 -24 3 -19 5 -20 18 -7 9
8 13 19 10 23 -4 7 27 42 37 42 2 0 3 -20 2 -45 -2 -50 12 -58 43 -27 28 28
57 32 71 11 6 -11 18 -19 27 -19 12 0 15 6 10 26 -5 20 -2 30 14 41 20 14 29
63 11 63 -5 0 -11 7 -15 15 -4 10 1 15 14 15 14 0 20 -7 20 -24 0 -22 2 -23
26 -13 15 7 27 23 31 40 3 15 12 27 19 27 9 0 14 10 14 28 -1 15 0 36 2 46 3
20 -11 28 -76 41 -23 5 -26 9 -16 15 12 7 11 10 -5 16 -11 5 -20 3 -23 -4 -5
-17 -42 -15 -42 3 0 21 -20 19 -21 -2 0 -14 -2 -13 -9 5 -10 23 -25 29 -35 12z"/>
<path d="M7906 3941 c-4 -6 -2 -11 3 -11 21 0 11 -19 -19 -37 -53 -31 -33 -58
22 -29 25 13 27 13 34 -13 4 -14 8 -29 8 -33 2 -13 16 -21 16 -9 0 7 4 10 9 7
5 -3 12 5 15 19 8 30 26 33 26 5 0 -21 15 -27 25 -9 4 6 13 8 20 5 7 -2 21 4
31 15 9 10 29 20 43 20 l26 2 -25 4 c-14 3 -32 10 -40 17 -40 34 -182 68 -194
47z"/>
<path d="M8223 3903 c-40 -5 -53 -21 -46 -55 3 -18 16 -33 36 -43 37 -18 41
-19 34 -1 -5 14 10 36 25 36 4 0 8 -8 8 -18 0 -21 27 -62 41 -62 6 0 8 8 4 19
-6 21 19 49 30 31 9 -15 55 -12 55 4 0 7 -11 25 -24 39 -19 21 -21 27 -9 31
50 20 -50 32 -154 19z"/>
<path d="M6635 3811 c-3 -10 -2 -27 1 -37 7 -18 7 -18 -14 -1 -20 18 -114 36
-190 37 -29 0 -31 -2 -21 -19 7 -10 19 -18 28 -17 23 2 24 -27 1 -42 -17 -10
-20 -10 -20 3 0 8 -4 15 -8 15 -14 0 -42 -35 -42 -52 0 -9 -6 -18 -12 -21 -27
-9 2 -18 73 -21 41 -2 98 -7 127 -11 47 -7 52 -6 53 11 0 14 2 15 6 4 10 -25
25 -30 94 -30 37 0 70 -5 77 -12 7 -7 13 -37 13 -68 1 -30 4 -44 6 -30 3 14
10 28 17 32 8 6 8 8 -1 8 -7 0 -13 9 -13 20 0 11 6 19 13 18 19 -4 13 100 -7
120 -14 15 -17 14 -30 -3 -13 -18 -14 -18 -24 2 -13 23 -81 77 -88 70 -3 -3 9
-18 25 -33 l31 -29 -55 -1 c-56 -1 -66 5 -41 25 8 7 14 27 13 46 -1 40 -3 43
-12 16z"/>
<path d="M4721 3661 c-14 -57 -19 -186 -7 -198 7 -8 86 33 102 54 8 9 9 26 3
51 -5 20 -9 54 -9 74 0 50 -16 56 -24 9 -3 -21 -12 -44 -20 -50 -15 -13 -21 4
-29 84 -2 26 -4 22 -16 -24z"/>
<path d="M8047 3663 c-30 -8 -12 -28 21 -25 24 2 32 -1 32 -12 0 -10 9 -16 22
-16 17 0 19 -3 10 -12 -8 -8 -15 -8 -24 -1 -14 11 -26 11 -113 -7 -62 -13 -95
-33 -95 -57 0 -20 27 -46 35 -33 12 19 89 7 86 -14 -3 -18 1 -24 24 -34 41
-19 85 -14 132 14 44 26 93 27 93 3 0 -6 7 -4 15 5 25 25 19 65 -12 77 -110
44 -143 69 -88 69 13 0 27 5 30 11 13 20 -5 24 -73 16 -19 -2 -37 2 -44 10
-11 13 -19 14 -51 6z"/>
<path d="M11396 3636 c-9 -33 -7 -39 9 -26 12 10 16 9 21 -4 10 -26 -4 -48
-28 -44 -16 2 -22 -3 -25 -23 -3 -21 1 -27 14 -25 12 1 18 -6 18 -19 0 -13 -7
-20 -20 -20 -19 0 -33 -17 -34 -41 -1 -7 7 -11 17 -10 11 1 17 -6 17 -19 0
-15 -7 -20 -25 -20 -17 0 -25 -6 -25 -17 0 -30 -18 -36 -90 -27 -38 4 -89 8
-112 8 -38 1 -43 -2 -43 -22 0 -13 -5 -28 -12 -35 -9 -9 -7 -12 13 -14 13 0
31 0 39 1 8 1 27 2 42 2 20 -1 27 4 30 21 3 21 8 23 68 23 36 0 70 4 77 8 6 4
14 3 18 -3 11 -18 25 -11 22 12 -1 15 5 26 21 33 26 11 28 27 7 45 -21 18 -19
28 13 55 24 21 25 24 10 30 -32 13 -20 51 14 46 19 -2 17 40 -3 60 -17 17 -19
23 -8 30 8 5 10 9 4 10 -5 0 -17 2 -27 4 -10 2 -18 -5 -22 -19z"/>
<path d="M6620 3556 l0 -53 43 -7 c75 -13 102 -12 98 4 -12 45 -12 60 -2 60 6
0 11 6 11 13 0 18 -57 37 -108 37 l-42 0 0 -54z"/>
<path d="M5188 3581 c-6 -2 -22 -14 -34 -26 -22 -22 -22 -24 -5 -39 10 -9 35
-16 59 -16 31 0 44 -5 52 -19 14 -27 13 -31 -11 -31 -28 0 -19 -22 16 -39 30
-14 30 -14 155 16 36 8 60 32 60 59 0 54 -209 122 -292 95z"/>
<path d="M5725 3524 c-111 -22 -127 -28 -156 -55 l-31 -29 32 -40 c27 -34 37
-40 70 -40 20 0 43 6 49 13 13 17 5 27 -23 27 -20 0 -20 0 1 19 12 11 23 26
26 33 4 10 9 8 21 -5 14 -19 56 -16 56 3 0 5 7 15 15 24 13 13 13 19 3 36 -13
20 -22 22 -63 14z"/>
<path d="M9265 3464 c-21 -23 -29 -25 -85 -20 -56 4 -62 3 -69 -17 -8 -20 -4
-23 38 -29 25 -4 98 -12 161 -18 63 -5 166 -15 228 -22 97 -10 115 -9 123 3
13 21 11 32 -6 26 -8 -4 -17 -2 -20 3 -4 6 -24 7 -46 4 -34 -6 -38 -4 -33 10
4 10 -2 25 -17 39 -25 23 -85 54 -75 38 3 -5 0 -14 -8 -20 -11 -9 -15 -9 -18
0 -4 13 -15 16 -97 23 -47 4 -56 2 -76 -20z"/>
<path d="M7834 3356 c-1 -28 2 -43 5 -33 6 17 8 16 19 -7 12 -27 36 -34 47
-16 5 8 11 7 21 -1 12 -10 10 -15 -11 -35 -30 -28 -45 -31 -45 -9 0 14 -12 19
-32 16 -5 0 -8 7 -8 17 0 14 -2 14 -9 3 -7 -10 -14 -3 -29 30 -13 28 -21 37
-21 24 -2 -57 78 -234 133 -296 23 -25 38 -55 47 -94 8 -36 19 -60 31 -66 17
-9 18 -8 9 10 -14 25 -14 42 0 19 11 -19 59 -25 59 -7 0 6 7 3 16 -6 15 -15
18 -15 35 1 23 21 26 2 3 -21 -9 -9 -14 -18 -12 -21 9 -8 30 22 74 102 12 22
31 48 43 58 39 35 131 248 131 304 0 21 -5 17 -33 -24 -48 -72 -89 -115 -104
-110 -19 8 -43 -4 -43 -20 0 -8 -4 -14 -8 -14 -4 0 -6 16 -4 35 3 27 9 35 26
36 16 1 17 2 4 6 -30 7 -20 31 22 58 25 16 40 33 40 45 0 17 -7 20 -43 20 -24
0 -70 9 -102 19 -44 15 -64 17 -78 9 -20 -10 -84 -6 -147 10 l-35 9 -1 -51z"/>
<path d="M11145 3186 c-3 -9 -7 -23 -10 -32 -5 -16 -41 -15 -38 2 1 5 -17 10
-40 11 -23 0 -36 -1 -29 -4 9 -3 4 -10 -13 -19 -37 -19 -48 -18 -35 5 5 11 6
22 1 25 -12 8 -21 -4 -21 -26 0 -11 -4 -17 -9 -14 -4 3 -6 17 -3 31 2 15 0 25
-7 25 -6 0 -11 -8 -12 -17 0 -11 -3 -13 -6 -5 -9 22 -43 14 -43 -10 0 -19 -2
-20 -10 -8 -8 12 -10 10 -10 -9 0 -24 0 -24 -15 -5 -9 12 -14 14 -15 6 0 -7
-4 -10 -10 -7 -5 3 -10 -1 -10 -10 0 -20 32 -138 40 -148 3 -4 67 -12 141 -17
74 -5 161 -14 194 -19 33 -6 103 -15 155 -21 52 -6 114 -13 138 -16 l42 -5 0
128 0 128 -27 12 c-16 6 -46 11 -68 9 -22 -1 -48 1 -57 6 -11 5 -22 3 -32 -8
-15 -14 -16 -14 -16 2 0 14 -7 16 -46 10 -26 -3 -53 -6 -60 -6 -8 0 -14 -6
-14 -14 0 -21 -20 -30 -33 -17 -8 8 -6 11 7 11 11 0 16 6 14 17 -4 23 -37 29
-43 9z"/>
<path d="M6182 2972 c20 -99 41 -198 48 -227 l7 -30 13 45 c17 56 21 161 8
177 -6 7 -8 26 -6 42 3 22 0 29 -11 28 -9 0 -28 2 -42 6 l-26 7 9 -48z"/>
<path d="M4670 2780 c25 -13 39 -15 48 -8 11 10 82 5 137 -8 12 -3 32 -23 45
-45 22 -34 32 -41 56 -38 3 0 20 -11 39 -25 l34 -26 -16 45 c-8 25 -19 47 -24
51 -5 3 -9 13 -9 23 0 10 -6 23 -12 28 -7 6 -85 13 -173 16 -159 5 -160 5
-125 -13z"/>
<path d="M7131 2689 c0 -14 3 -39 8 -55 5 -16 17 -56 26 -89 9 -33 22 -72 27
-88 l10 -27 31 30 c17 16 35 30 40 30 4 0 5 9 2 20 -5 15 -2 20 11 20 14 0 12
6 -10 34 -24 33 -25 36 -11 69 14 33 13 35 -11 46 -34 15 -33 16 -27 -29 4
-26 2 -40 -6 -40 -6 0 -11 -6 -11 -13 0 -7 -6 -22 -14 -32 -13 -18 -15 -16
-26 25 -7 25 -16 54 -21 65 -4 11 -10 29 -12 40 -4 15 -5 14 -6 -6z"/>
<path d="M8408 2460 c-9 -14 -24 -20 -50 -20 -21 0 -38 5 -38 10 0 34 -91 -34
-104 -77 -6 -20 -4 -23 18 -23 14 0 26 -4 26 -10 0 -5 7 -10 15 -10 27 0 35
-39 35 -182 0 -167 11 -220 63 -297 27 -41 38 -50 43 -38 3 10 -9 37 -35 73
l-41 57 0 189 0 188 34 0 c36 0 56 14 34 23 -9 4 -9 6 -1 6 6 1 10 9 9 19 -2
9 2 2 7 -15 11 -35 27 -44 27 -17 0 9 -7 32 -16 51 -13 25 -14 37 -5 46 14 14
15 47 1 47 -5 0 -15 -9 -22 -20z"/>
<path d="M4548 2377 c-5 -10 -8 -33 -8 -50 0 -18 -7 -56 -15 -86 -8 -30 -14
-85 -14 -124 0 -71 16 -128 30 -106 4 7 7 2 7 -12 0 -13 1 -48 2 -78 1 -29 -3
-58 -9 -64 -17 -17 -13 -55 9 -70 10 -7 24 -25 29 -40 9 -24 13 -26 36 -17 15
6 43 10 63 10 42 0 56 7 65 34 6 14 4 16 -5 8 -25 -20 -91 -5 -121 28 -31 34
-27 54 9 47 18 -3 23 0 21 13 -2 10 -8 24 -14 32 -6 7 -14 29 -18 48 -4 19
-12 41 -17 47 -6 7 -8 20 -4 28 3 8 1 15 -4 15 -5 0 -7 7 -4 15 4 8 3 23 -1
33 -6 16 -7 16 -21 -2 -13 -19 -14 -18 -15 10 -1 29 -1 29 -9 4 -8 -24 -8 -23
-9 8 -1 25 3 32 16 30 24 -4 33 42 22 115 -5 34 -10 80 -11 102 -2 29 -5 35
-10 22z"/>
<path d="M8614 2236 c-3 -14 -4 -29 -1 -33 3 -5 1 -44 -3 -87 -7 -57 -19 -97
-45 -150 -19 -39 -35 -85 -35 -101 0 -17 -9 -45 -21 -64 -16 -26 -18 -39 -11
-56 6 -12 16 -22 24 -22 11 -1 220 -24 366 -40 24 -3 49 0 54 5 10 10 36 294
41 451 l2 75 -40 8 c-66 14 -246 38 -287 38 -32 0 -39 -4 -44 -24z"/>
<path d="M10572 2093 c-20 -4 -20 -6 -7 -19 16 -17 21 -54 6 -54 -5 0 -12 7
-15 16 -5 13 -14 15 -39 9 -17 -3 -56 -6 -84 -5 -33 0 -53 -3 -53 -10 0 -7
-10 -9 -28 -5 -20 4 -33 1 -42 -10 -10 -12 -10 -15 4 -15 9 0 19 -7 22 -15 4
-8 17 -15 31 -15 20 0 23 -3 14 -13 -8 -10 -7 -17 2 -26 16 -16 -6 -30 -39
-23 -28 5 -33 -18 -8 -39 14 -12 14 -14 -3 -26 -15 -12 -16 -15 -3 -23 23 -15
45 -7 48 18 3 17 8 22 20 17 9 -4 32 -9 50 -12 36 -6 43 -19 10 -18 -31 0 -34
-19 -4 -23 13 -2 30 -10 36 -18 7 -8 20 -14 30 -14 10 0 23 -6 29 -13 6 -8 36
-19 66 -26 30 -7 55 -17 55 -22 0 -12 37 -12 45 1 4 6 -7 13 -24 16 -30 6 -40
18 -23 27 4 2 22 -2 41 -10 25 -11 31 -17 22 -26 -19 -19 -12 -32 22 -45 42
-15 47 -15 47 1 0 6 11 13 25 13 15 1 25 -3 25 -12 0 -8 7 -14 15 -14 17 0 20
-11 5 -26 -5 -5 -6 -15 -1 -23 7 -11 10 -9 16 8 8 27 26 27 43 1 9 -15 19 -19
37 -14 25 6 30 -1 26 -33 -1 -7 2 -13 7 -13 4 0 14 6 21 13 11 10 14 10 18 0
7 -19 20 -16 26 7 7 25 27 26 34 1 3 -11 12 -22 20 -26 23 -8 80 5 81 18 0 7
6 41 12 76 9 55 8 76 -7 137 -21 85 -14 82 -168 91 -60 3 -112 9 -115 12 -12
15 -60 41 -60 32 0 -5 -6 -11 -14 -14 -18 -7 -57 3 -51 13 7 11 -5 40 -16 40
-6 0 -8 -12 -7 -27 3 -26 0 -28 -32 -27 -19 1 -67 7 -107 13 l-72 13 20 51
c11 29 25 57 31 64 6 8 6 19 -2 32 -6 12 -12 20 -13 20 -1 -1 -12 -4 -25 -6z"/>
<path d="M3555 810 c18 -8 19 -9 1 -9 -12 -1 -16 -6 -12 -17 3 -8 2 -12 -4 -9
-6 3 -10 1 -10 -5 0 -6 -4 -9 -9 -5 -9 5 -28 -37 -20 -43 2 -2 -4 -8 -15 -14
-15 -8 -16 -12 -5 -19 9 -5 2 -7 -18 -4 -18 2 -33 1 -33 -1 0 -15 46 -64 60
-64 9 0 21 -5 27 -11 7 -7 18 -3 36 15 l26 26 -39 0 c-36 0 -40 3 -40 24 0 48
111 103 165 82 21 -8 19 11 -2 23 -13 7 -4 9 32 4 28 -3 47 -3 44 1 -3 3 -19
7 -35 9 -17 2 -36 7 -43 11 -7 5 -24 2 -38 -5 -22 -12 -27 -11 -38 4 -7 9 -21
17 -31 16 -18 0 -18 -1 1 -9z"/>
<path d="M0 291 l0 -291 451 0 451 0 -5 25 c-5 29 23 51 50 40 9 -3 -31 42
-90 99 -58 58 -113 120 -122 139 -15 33 -74 65 -95 52 -11 -7 -61 17 -79 39
-7 9 -17 13 -23 10 -5 -3 -14 8 -21 25 -6 17 -15 31 -19 31 -23 0 -21 -157 2
-201 7 -11 9 -23 7 -25 -13 -13 -57 109 -61 167 -5 59 -23 141 -25 112 -1 -15
-31 -18 -31 -3 0 15 -30 12 -36 -4 -8 -20 -41 -26 -55 -10 -17 20 -105 44
-165 44 -33 0 -56 5 -64 14 -6 8 -18 12 -26 9 -8 -3 -21 0 -29 7 -13 11 -15
-22 -15 -279z"/>
<path d="M1035 105 c-14 -12 -16 -18 -7 -21 6 -3 12 -10 12 -15 0 -5 12 -23
27 -39 25 -29 30 -30 105 -30 81 0 96 10 53 34 -11 6 -25 16 -32 23 -54 49
-129 71 -158 48z"/>
</g>
</svg>
